<svg width="7" height="13" viewBox="0 0 7 13" fill="none" xmlns="http://www.w3.org/2000/svg">
<path d="M7 0.365261C7 0.26952 6.96648 0.177701 6.90681 0.110001C6.84714 0.0423021 6.76621 0.00426897 6.68182 0.00426897H5.09091C4.28981 -0.0410061 3.50547 0.275296 2.90928 0.884065C2.31308 1.49283 1.9535 2.34458 1.90909 3.2532V5.20256H0.318182C0.233795 5.20256 0.152864 5.24059 0.0931934 5.30829C0.0335227 5.37599 0 5.46781 0 5.56355V7.44071C0 7.53646 0.0335227 7.62828 0.0931934 7.69597C0.152864 7.76367 0.233795 7.80171 0.318182 7.80171H1.90909V12.639C1.90909 12.7347 1.94261 12.8266 2.00228 12.8943C2.06195 12.962 2.14289 13 2.22727 13H4.13636C4.22075 13 4.30168 12.962 4.36135 12.8943C4.42102 12.8266 4.45455 12.7347 4.45455 12.639V7.80171H6.12182C6.19258 7.80286 6.26165 7.77722 6.31813 7.72884C6.3746 7.68046 6.41525 7.6121 6.43364 7.53457L6.89182 5.65741C6.90448 5.60407 6.90618 5.54815 6.89679 5.49395C6.8874 5.43974 6.86718 5.38871 6.83767 5.34477C6.80817 5.30083 6.77016 5.26516 6.72659 5.24051C6.68303 5.21585 6.63505 5.20287 6.58636 5.20256H4.45455V3.2532C4.47037 3.07449 4.54435 2.9089 4.66202 2.78874C4.77968 2.66859 4.9326 2.60251 5.09091 2.60342H6.68182C6.76621 2.60342 6.84714 2.56538 6.90681 2.49768C6.96648 2.42998 7 2.33816 7 2.24242V0.365261Z" fill="black"/>
</svg>
