<svg width="16" height="16" viewBox="0 0 16 16" fill="none" xmlns="http://www.w3.org/2000/svg">
<path d="M16 8.04955C16 3.60268 12.4165 0 8 0C3.5805 0 0 3.60268 0 8.04955C0 12.0663 2.9245 15.3968 6.75 16V10.3769H4.7185V8.05006H6.75V6.27563C6.75 4.25872 7.9425 3.14486 9.7705 3.14486C10.646 3.14486 11.5625 3.30183 11.5625 3.30183V5.28252H10.552C9.56 5.28252 9.25 5.90385 9.25 6.54026V8.04955H11.4685L11.112 10.3764H9.25V15.9995C13.0725 15.3963 16 12.0658 16 8.04905V8.04955Z" fill="#D2C6A5"/>
</svg>
