<svg width="17" height="17" viewBox="0 0 17 17" fill="none" xmlns="http://www.w3.org/2000/svg">
<path d="M6.72917 7.29583L8.5 6.41042L10.2708 7.29583V3.1875H6.72917V7.29583ZM4.95833 12.0417V10.625H8.5V12.0417H4.95833ZM3.1875 14.875C2.90417 14.875 2.65625 14.7687 2.44375 14.5562C2.23125 14.3437 2.125 14.0958 2.125 13.8125V3.1875C2.125 2.90417 2.23125 2.65625 2.44375 2.44375C2.65625 2.23125 2.90417 2.125 3.1875 2.125H13.8125C14.0958 2.125 14.3437 2.23125 14.5562 2.44375C14.7687 2.65625 14.875 2.90417 14.875 3.1875V13.8125C14.875 14.0958 14.7687 14.3437 14.5562 14.5562C14.3437 14.7687 14.0958 14.875 13.8125 14.875H3.1875ZM3.1875 3.1875V13.8125V3.1875ZM3.1875 13.8125H13.8125V3.1875H11.3333V9.01354L8.5 7.59688L5.66667 9.01354V3.1875H3.1875V13.8125Z" fill="#1F1F1F"/>
</svg>
