<svg width="14" height="14" viewBox="0 0 14 14" fill="none" xmlns="http://www.w3.org/2000/svg">
<path d="M13.8621 5.68732C13.9514 6.15593 14 6.64588 14 7.15715C14 11.1563 11.2686 14 7.14332 14C6.20516 14.0003 5.27614 13.8194 4.40935 13.4677C3.54255 13.116 2.75497 12.6004 2.09159 11.9504C1.42822 11.3003 0.902054 10.5285 0.54317 9.67912C0.184286 8.82971 -0.000285705 7.91933 3.31951e-07 7C-0.000285705 6.08067 0.184286 5.17029 0.54317 4.32088C0.902054 3.47148 1.42822 2.69969 2.09159 2.04963C2.75497 1.39956 3.54255 0.883956 4.40935 0.532273C5.27614 0.180589 6.20516 -0.000279973 7.14332 3.25291e-07C9.0721 3.25291e-07 10.6838 0.695449 11.9203 1.82467L9.9066 3.79795V3.79297C9.157 3.09325 8.20567 2.73415 7.14332 2.73415C4.7864 2.73415 2.87068 4.68539 2.87068 6.99573C2.87068 9.30536 4.7864 11.2609 7.14332 11.2609C9.28181 11.2609 10.7375 10.0627 11.0364 8.41721H7.14332V5.68732H13.8629H13.8621Z" fill="#D2C6A5"/>
</svg>
