<svg width="24" height="24" viewBox="0 0 24 24" fill="none" xmlns="http://www.w3.org/2000/svg">
<path d="M11.8977 18.7985C11.9659 18.7985 12.0443 18.7818 12.133 18.7484C12.2216 18.7151 12.2932 18.6717 12.3477 18.6183L19.2409 11.8498C19.4182 11.6763 19.5511 11.4793 19.6398 11.2591C19.7284 11.0388 19.7727 10.8152 19.7727 10.5882C19.7727 10.3613 19.7284 10.1343 19.6398 9.90738C19.5511 9.68043 19.4182 9.48018 19.2409 9.30663L15.5591 5.70213C15.3818 5.52858 15.1773 5.39841 14.9455 5.31164C14.7136 5.22486 14.4818 5.18148 14.25 5.18148C14.0182 5.18148 13.7898 5.22486 13.5648 5.31164C13.3398 5.39841 13.1386 5.52858 12.9614 5.70213L12.5932 6.06258L14.25 7.70463C14.4273 7.89153 14.5841 8.10847 14.7205 8.35544C14.8568 8.60242 14.925 8.87276 14.925 9.16646C14.925 9.67376 14.7239 10.121 14.3216 10.5081C13.9193 10.8953 13.4591 11.0889 12.9409 11.0889C12.6 11.0889 12.317 11.0388 12.092 10.9387C11.867 10.8385 11.6591 10.695 11.4682 10.5081L9.975 9.04631L6.27273 12.6708C6.20455 12.7376 6.15682 12.8077 6.12955 12.8811C6.10227 12.9545 6.08864 13.0313 6.08864 13.1114C6.08864 13.2849 6.14659 13.4285 6.2625 13.5419C6.37841 13.6554 6.525 13.7121 6.70227 13.7121C6.78409 13.7121 6.8625 13.6921 6.9375 13.6521C7.0125 13.612 7.07727 13.5653 7.13182 13.5119L9.95455 10.7484L10.8136 11.5895L8.01136 14.3329C7.94318 14.3997 7.89545 14.4731 7.86818 14.5532C7.84091 14.6333 7.82727 14.7134 7.82727 14.7935C7.82727 14.9537 7.88864 15.0939 8.01136 15.214C8.13409 15.3342 8.27727 15.3942 8.44091 15.3942C8.52273 15.3942 8.60114 15.3776 8.67614 15.3442C8.75114 15.3108 8.81591 15.2674 8.87045 15.214L11.6932 12.4506L12.5523 13.2916L9.75 16.035C9.69545 16.0884 9.65114 16.1585 9.61704 16.2453C9.58295 16.3321 9.56591 16.4155 9.56591 16.4956C9.56591 16.6558 9.62727 16.796 9.75 16.9161C9.87273 17.0363 10.0159 17.0964 10.1795 17.0964C10.2614 17.0964 10.3364 17.083 10.4045 17.0563C10.4727 17.0296 10.5409 16.9829 10.6091 16.9161L13.4318 14.1527L14.2909 14.9937L11.4682 17.7572C11.4 17.8239 11.3523 17.8974 11.325 17.9775C11.2977 18.0576 11.2841 18.131 11.2841 18.1977C11.2841 18.3846 11.3386 18.5315 11.4477 18.6383C11.5568 18.7451 11.7068 18.7985 11.8977 18.7985ZM11.8977 20C11.4477 20 11.0455 19.8365 10.6909 19.5094C10.3364 19.1823 10.125 18.7785 10.0568 18.2979C9.59318 18.2311 9.20455 18.0442 8.89091 17.7372C8.57727 17.4301 8.38636 17.0496 8.31818 16.5957C7.85455 16.529 7.46932 16.3388 7.1625 16.025C6.85568 15.7113 6.66818 15.3342 6.6 14.8936C6.09545 14.8269 5.67955 14.6266 5.35227 14.2929C5.025 13.9591 4.86136 13.5586 4.86136 13.0914C4.86136 12.8644 4.90568 12.6375 4.99432 12.4105C5.08295 12.1836 5.21591 11.9833 5.39318 11.8098L9.975 7.32416L12.225 9.52691C12.3341 9.63371 12.4534 9.71715 12.583 9.77722C12.7125 9.8373 12.8386 9.86733 12.9614 9.86733C13.1386 9.86733 13.3057 9.79057 13.4625 9.63705C13.6193 9.48352 13.6977 9.31998 13.6977 9.14643C13.6977 9.06633 13.6739 8.97622 13.6261 8.8761C13.5784 8.77597 13.5 8.67251 13.3909 8.56571L10.4659 5.70213C10.2886 5.52858 10.0841 5.39841 9.85227 5.31164C9.62045 5.22486 9.38864 5.18148 9.15682 5.18148C8.925 5.18148 8.69659 5.22486 8.47159 5.31164C8.24659 5.39841 8.04545 5.52858 7.86818 5.70213L4.75909 8.74593C4.56818 8.93283 4.43523 9.12975 4.36023 9.33667C4.28523 9.5436 4.24091 9.77388 4.22727 10.0275C4.21364 10.2945 4.26477 10.5515 4.38068 10.7985C4.49659 11.0455 4.63636 11.2691 4.8 11.4693L3.92045 12.3304C3.64773 12.0367 3.42614 11.6829 3.25568 11.2691C3.08523 10.8552 3 10.4347 3 10.0075C3 9.60701 3.07841 9.2232 3.23523 8.85607C3.39205 8.48894 3.61364 8.16521 3.9 7.88486L6.98864 4.86108C7.28864 4.56738 7.62955 4.35044 8.01136 4.21026C8.39318 4.07009 8.78182 4 9.17727 4C9.57273 4 9.95795 4.07009 10.333 4.21026C10.708 4.35044 11.0455 4.56738 11.3455 4.86108L11.7136 5.22153L12.0818 4.86108C12.3818 4.56738 12.7227 4.35044 13.1045 4.21026C13.4864 4.07009 13.875 4 14.2705 4C14.6659 4 15.0511 4.07009 15.4261 4.21026C15.8011 4.35044 16.1386 4.56738 16.4386 4.86108L20.1 8.44556C20.4 8.73926 20.625 9.07301 20.775 9.44681C20.925 9.82061 21 10.2011 21 10.5882C21 10.9754 20.925 11.3525 20.775 11.7197C20.625 12.0868 20.4 12.4172 20.1 12.7109L13.2068 19.4593C13.0295 19.6329 12.8284 19.7664 12.6034 19.8598C12.3784 19.9533 12.1432 20 11.8977 20Z" fill="#D2C6A5"/>
</svg>
