<svg width="12" height="12" viewBox="0 0 12 12" fill="none" xmlns="http://www.w3.org/2000/svg">
<path d="M5.99839 3.99915C4.89666 3.99915 3.99757 4.89826 3.99757 6C3.99757 7.10174 4.89666 8.00085 5.99839 8.00085C7.10011 8.00085 7.9992 7.10174 7.9992 6C7.9992 4.89826 7.10011 3.99915 5.99839 3.99915ZM11.9993 6C11.9993 5.17144 12.0068 4.35039 11.9603 3.52333C11.9138 2.56268 11.6946 1.7101 10.9922 1.00763C10.2882 0.303651 9.43715 0.0860042 8.47652 0.0394728C7.64797 -0.00705863 6.82693 0.000446468 5.99989 0.000446468C5.17134 0.000446468 4.3503 -0.00705863 3.52326 0.0394728C2.56263 0.0860042 1.71007 0.305152 1.00761 1.00763C0.303646 1.7116 0.0860026 2.56268 0.0394721 3.52333C-0.00705849 4.35189 0.00044646 5.17294 0.00044646 6C0.00044646 6.82706 -0.00705849 7.64961 0.0394721 8.47667C0.0860026 9.43732 0.305147 10.2899 1.00761 10.9924C1.71157 11.6963 2.56263 11.914 3.52326 11.9605C4.35181 12.0071 5.17284 11.9996 5.99989 11.9996C6.82843 11.9996 7.64947 12.0071 8.47652 11.9605C9.43715 11.914 10.2897 11.6948 10.9922 10.9924C11.6961 10.2884 11.9138 9.43732 11.9603 8.47667C12.0083 7.64961 11.9993 6.82856 11.9993 6ZM5.99839 9.07858C4.29477 9.07858 2.91986 7.70365 2.91986 6C2.91986 4.29635 4.29477 2.92142 5.99839 2.92142C7.70201 2.92142 9.07691 4.29635 9.07691 6C9.07691 7.70365 7.70201 9.07858 5.99839 9.07858ZM9.20299 3.51432C8.80523 3.51432 8.48402 3.1931 8.48402 2.79533C8.48402 2.39757 8.80523 2.07635 9.20299 2.07635C9.60075 2.07635 9.92197 2.39757 9.92197 2.79533C9.92208 2.88979 9.90357 2.98333 9.86748 3.07062C9.83139 3.1579 9.77843 3.23721 9.71165 3.304C9.64486 3.37079 9.56556 3.42374 9.47827 3.45983C9.39099 3.49592 9.29744 3.51444 9.20299 3.51432Z" fill="black"/>
</svg>
