<svg width="11" height="11" viewBox="0 0 11 11" fill="none" xmlns="http://www.w3.org/2000/svg">
<path fill-rule="evenodd" clip-rule="evenodd" d="M4.08595 3.83295H6.12865V4.85045C6.4229 4.26525 7.1775 3.73945 8.31105 3.73945C10.4841 3.73945 11 4.90435 11 7.04165V11H8.8V7.5284C8.8 6.31125 8.50575 5.62485 7.75665 5.62485C6.7177 5.62485 6.28595 6.3646 6.28595 7.52785V11H4.08595V3.83295ZM0.3135 10.9065H2.5135V3.73945H0.3135V10.9065ZM2.82865 1.4025C2.82873 1.5869 2.79216 1.76948 2.72106 1.93962C2.64997 2.10977 2.54576 2.26408 2.4145 2.3936C2.14852 2.65794 1.7885 2.80591 1.4135 2.805C1.03916 2.80475 0.679971 2.65716 0.4136 2.39415C0.282816 2.26419 0.178962 2.1097 0.107989 1.93954C0.0370158 1.76937 0.000318523 1.58687 0 1.4025C0 1.03015 0.1485 0.67375 0.41415 0.41085C0.680287 0.147487 1.03963 -0.000164566 1.41405 1.37645e-07C1.78915 1.37645e-07 2.14885 0.14795 2.4145 0.41085C2.6796 0.67375 2.82865 1.03015 2.82865 1.4025Z" fill="black"/>
</svg>
