<svg width="11" height="13" viewBox="0 0 11 13" fill="none" xmlns="http://www.w3.org/2000/svg">
<path fill-rule="evenodd" clip-rule="evenodd" d="M5.5 3.82353C4.63571 3.82353 3.92857 4.51177 3.92857 5.35294C3.92857 6.19412 4.63571 6.88235 5.5 6.88235C5.91677 6.88235 6.31647 6.72122 6.61117 6.4344C6.90587 6.14758 7.07143 5.75857 7.07143 5.35294C7.07143 4.94732 6.90587 4.5583 6.61117 4.27148C6.31647 3.98466 5.91677 3.82353 5.5 3.82353ZM5.5 0C8.06929 0 11 1.88118 11 5.46765C11 7.85353 9.16929 10.3694 5.5 13C1.83071 10.3694 0 7.85353 0 5.46765C0 1.88118 2.93071 0 5.5 0Z" fill="#1F1F1F"/>
</svg>
