<svg width="24" height="24" viewBox="0 0 24 24" fill="none" xmlns="http://www.w3.org/2000/svg">
<path d="M21.7781 10.7156L8.27813 2.47497C8.05326 2.33247 7.79356 2.25448 7.52738 2.24952C7.26121 2.24456 6.99878 2.31282 6.76876 2.44684C6.53533 2.57491 6.34074 2.76353 6.20545 2.99285C6.07017 3.22217 5.9992 3.48372 6.00001 3.74997V20.25C5.9992 20.5162 6.07017 20.7778 6.20545 21.0071C6.34074 21.2364 6.53533 21.425 6.76876 21.5531C6.99878 21.6871 7.26121 21.7554 7.52738 21.7504C7.79356 21.7455 8.05326 21.6675 8.27813 21.525L21.7781 13.2843C21.9994 13.1509 22.1824 12.9625 22.3095 12.7374C22.4365 12.5124 22.5033 12.2584 22.5033 12C22.5033 11.7416 22.4365 11.4875 22.3095 11.2625C22.1824 11.0375 21.9994 10.8491 21.7781 10.7156Z" fill="white"/>
</svg>
