<svg width="24" height="24" viewBox="0 0 24 24" fill="none" xmlns="http://www.w3.org/2000/svg">
<path d="M5.6 20C4.78333 20 4.0875 19.712 3.5125 19.1362C2.9375 18.5603 2.65 17.8633 2.65 17.0454H1V5.50235C1 5.10172 1.15 4.75117 1.45 4.4507C1.75 4.15023 2.1 4 2.5 4H16.975V8.18153H19.6L23 12.7136V17.0454H21.225C21.225 17.8633 20.9375 18.5603 20.3625 19.1362C19.7875 19.712 19.0917 20 18.275 20C17.4583 20 16.7625 19.712 16.1875 19.1362C15.6125 18.5603 15.325 17.8633 15.325 17.0454H8.55C8.55 17.8633 8.2625 18.5603 7.6875 19.1362C7.1125 19.712 6.41667 20 5.6 20ZM5.6 18.4977C6 18.4977 6.34167 18.3558 6.625 18.072C6.90833 17.7882 7.05 17.446 7.05 17.0454C7.05 16.6448 6.90833 16.3026 6.625 16.0188C6.34167 15.735 6 15.5931 5.6 15.5931C5.2 15.5931 4.85833 15.735 4.575 16.0188C4.29167 16.3026 4.15 16.6448 4.15 17.0454C4.15 17.446 4.29167 17.7882 4.575 18.072C4.85833 18.3558 5.2 18.4977 5.6 18.4977ZM2.5 15.543H3.05C3.33333 15.0923 3.69167 14.7334 4.125 14.4664C4.55833 14.1993 5.04167 14.0657 5.575 14.0657C6.10833 14.0657 6.59583 14.2034 7.0375 14.4789C7.47917 14.7543 7.84167 15.109 8.125 15.543H15.475V5.50235H2.5V15.543ZM18.275 18.4977C18.675 18.4977 19.0167 18.3558 19.3 18.072C19.5833 17.7882 19.725 17.446 19.725 17.0454C19.725 16.6448 19.5833 16.3026 19.3 16.0188C19.0167 15.735 18.675 15.5931 18.275 15.5931C17.875 15.5931 17.5333 15.735 17.25 16.0188C16.9667 16.3026 16.825 16.6448 16.825 17.0454C16.825 17.446 16.9667 17.7882 17.25 18.072C17.5333 18.3558 17.875 18.4977 18.275 18.4977ZM16.975 13.3897H21.625L18.85 9.68388H16.975V13.3897Z" fill="#D2C6A5"/>
</svg>
