<svg width="17" height="17" viewBox="0 0 17 17" fill="none" xmlns="http://www.w3.org/2000/svg">
<path d="M3.96659 14.1491C3.38811 14.1491 2.89523 13.9455 2.48794 13.5382C2.08065 13.1309 1.877 12.638 1.877 12.0595H0.708252V3.896C0.708252 3.61266 0.814502 3.36475 1.027 3.15225C1.2395 2.93975 1.48742 2.8335 1.77075 2.8335H12.0239V5.79079H13.8833L16.2916 8.996V12.0595H15.0343C15.0343 12.638 14.8306 13.1309 14.4234 13.5382C14.0161 13.9455 13.5232 14.1491 12.9447 14.1491C12.3662 14.1491 11.8734 13.9455 11.4661 13.5382C11.0588 13.1309 10.8551 12.638 10.8551 12.0595H6.05617C6.05617 12.638 5.85252 13.1309 5.44523 13.5382C5.03794 13.9455 4.54506 14.1491 3.96659 14.1491ZM3.96659 13.0866C4.24992 13.0866 4.49193 12.9863 4.69263 12.7856C4.89332 12.5849 4.99367 12.3429 4.99367 12.0595C4.99367 11.7762 4.89332 11.5342 4.69263 11.3335C4.49193 11.1328 4.24992 11.0325 3.96659 11.0325C3.68325 11.0325 3.44124 11.1328 3.24054 11.3335C3.03985 11.5342 2.9395 11.7762 2.9395 12.0595C2.9395 12.3429 3.03985 12.5849 3.24054 12.7856C3.44124 12.9863 3.68325 13.0866 3.96659 13.0866ZM1.77075 10.997H2.16034C2.36103 10.6783 2.61485 10.4245 2.92179 10.2356C3.22874 10.0467 3.5711 9.95225 3.94888 9.95225C4.32665 9.95225 4.67197 10.0496 4.98481 10.2444C5.29766 10.4392 5.55443 10.6901 5.75513 10.997H10.9614V3.896H1.77075V10.997ZM12.9447 13.0866C13.228 13.0866 13.4701 12.9863 13.6708 12.7856C13.8714 12.5849 13.9718 12.3429 13.9718 12.0595C13.9718 11.7762 13.8714 11.5342 13.6708 11.3335C13.4701 11.1328 13.228 11.0325 12.9447 11.0325C12.6614 11.0325 12.4194 11.1328 12.2187 11.3335C12.018 11.5342 11.9176 11.7762 11.9176 12.0595C11.9176 12.3429 12.018 12.5849 12.2187 12.7856C12.4194 12.9863 12.6614 13.0866 12.9447 13.0866ZM12.0239 9.47412H15.3176L13.352 6.85329H12.0239V9.47412Z" fill="#1F1F1F"/>
</svg>
