<svg width="11" height="9" viewBox="0 0 11 9" fill="none" xmlns="http://www.w3.org/2000/svg">
<path d="M11 1.06756C10.5955 1.24797 10.1609 1.36986 9.70409 1.42496C10.1755 1.14109 10.5281 0.694306 10.6962 0.16798C10.2534 0.432731 9.76869 0.619086 9.26324 0.718945C8.92333 0.353682 8.47312 0.11158 7.9825 0.0302262C7.49187 -0.0511275 6.98829 0.0328189 6.54993 0.269032C6.11156 0.505246 5.76295 0.88051 5.55821 1.33656C5.35347 1.79262 5.30406 2.30394 5.41764 2.79116C4.52028 2.74581 3.64243 2.51107 2.84104 2.10216C2.03966 1.69326 1.33265 1.11933 0.765921 0.417621C0.57214 0.754051 0.460715 1.14411 0.460715 1.55953C0.460499 1.9335 0.552002 2.30175 0.727106 2.63159C0.90221 2.96143 1.1555 3.24268 1.4645 3.45037C1.10614 3.43889 0.755686 3.34143 0.442306 3.16611V3.19536C0.44227 3.71987 0.622539 4.22824 0.952524 4.63421C1.28251 5.04017 1.74189 5.31874 2.25271 5.42263C1.92027 5.51318 1.57173 5.52651 1.23342 5.46163C1.37754 5.91294 1.65828 6.30759 2.03634 6.59034C2.41439 6.87309 2.87083 7.02977 3.34176 7.03846C2.54233 7.67008 1.55504 8.01269 0.538712 8.01118C0.35868 8.01123 0.1788 8.00065 0 7.97949C1.03163 8.64707 2.23253 9.00137 3.459 9C7.61076 9 9.88043 5.53916 9.88043 2.53762C9.88043 2.4401 9.87801 2.34161 9.87365 2.24409C10.3151 1.92277 10.6962 1.52486 10.999 1.06903L11 1.06756Z" fill="black"/>
</svg>
