<svg width="72" height="72" viewBox="0 0 72 72" fill="none" xmlns="http://www.w3.org/2000/svg">
<g clip-path="url(#clip0_894_2283)">
<path d="M36 63C50.9117 63 63 50.9117 63 36C63 21.0883 50.9117 9 36 9C21.0883 9 9 21.0883 9 36C9 50.9117 21.0883 63 36 63Z" stroke="#1F1F1F" stroke-linecap="round" stroke-linejoin="round"/>
<path d="M36 45C42.2132 45 47.25 39.9632 47.25 33.75C47.25 27.5368 42.2132 22.5 36 22.5C29.7868 22.5 24.75 27.5368 24.75 33.75C24.75 39.9632 29.7868 45 36 45Z" stroke="#1F1F1F" stroke-linecap="round" stroke-linejoin="round"/>
<path d="M17.9531 56.083C19.646 52.7485 22.2291 49.948 25.4162 47.9917C28.6033 46.0355 32.2698 45 36.0094 45C39.7489 45 43.4155 46.0355 46.6025 47.9917C49.7896 49.948 52.3728 52.7485 54.0656 56.083" stroke="#1F1F1F" stroke-linecap="round" stroke-linejoin="round"/>
</g>
<defs>
<clipPath id="clip0_894_2283">
<rect width="72" height="72" fill="white"/>
</clipPath>
</defs>
</svg>
