<svg width="15" height="9" viewBox="0 0 15 9" fill="none" xmlns="http://www.w3.org/2000/svg">
<path d="M14.6859 1.4121C14.601 1.13959 14.4356 0.892867 14.2072 0.698169C13.9724 0.497483 13.6847 0.353927 13.3711 0.281052C12.1975 0.00278758 7.49563 0.00278765 7.49563 0.00278765C5.53547 -0.017274 3.5758 0.0709623 1.62767 0.266999C1.31408 0.345257 1.02685 0.49202 0.791529 0.694234C0.56031 0.894359 0.392833 1.14114 0.305345 1.41154C0.095181 2.43001 -0.00693082 3.46415 0.000385688 4.5C-0.0071133 5.53492 0.094748 6.56871 0.305345 7.58845C0.390958 7.85773 0.557811 8.10339 0.789654 8.30183C1.0215 8.50026 1.31021 8.64361 1.62767 8.7195C2.81688 8.99721 7.49563 8.99721 7.49563 8.99721C9.45828 9.01729 11.4204 8.92906 13.3711 8.733C13.6847 8.66012 13.9724 8.51656 14.2072 8.31588C14.4355 8.12122 14.6007 7.87447 14.6853 7.60195C14.9009 6.58387 15.0058 5.5493 14.9984 4.51293C15.0146 3.47216 14.9099 2.43272 14.6859 1.41154V1.4121ZM6.00083 6.4248V2.57575L9.9128 4.50056L6.00083 6.4248Z" fill="black"/>
</svg>
